<svg width="634" height="730" viewBox="0 0 634 730" fill="none" xmlns="http://www.w3.org/2000/svg">
<path d="M557.339 48.0776C557.999 45.9876 558.259 44.7676 558.769 43.6476C563.419 33.3676 558.869 25.0676 547.559 24.1476C532.779 22.9476 517.959 22.2076 503.159 21.3376C492.019 20.6876 480.859 20.2576 469.719 19.4376C467.869 19.2976 466.099 17.7076 464.359 16.6876C461.729 15.1476 459.319 12.5976 456.519 12.0676C399.589 1.29763 342.229 -2.84237 284.399 2.01763C251.479 4.78763 219.049 10.3776 187.359 20.0576C168.869 25.7076 149.979 30.4776 133.369 40.5976C124.959 45.7176 119.329 47.7976 111.619 38.9976C105.159 31.6276 95.1994 29.6476 85.2494 32.8476C73.6094 36.5876 68.3094 48.3876 72.1594 62.4276C73.1694 66.1076 72.2994 67.9976 68.9094 68.6976C55.8694 71.3776 47.8994 88.7476 54.5894 104.338C55.6394 106.778 56.5994 109.488 58.3594 111.338C62.5094 115.708 61.0294 118.998 57.9594 123.358C17.4394 180.988 -2.44061 244.968 0.23938 315.528C1.1394 339.268 5.1394 362.568 14.6994 384.618C17.2394 390.478 19.3594 396.528 21.2694 402.628C21.6994 404.008 20.8594 406.228 19.8794 407.528C9.07941 421.868 3.73944 438.088 3.33942 455.888C2.6394 486.568 9.96936 514.998 28.2294 540.068C31.4294 544.468 35.4294 548.378 39.5094 552.018C42.1294 554.358 42.3694 556.198 40.9994 559.288C38.1694 565.678 35.5094 572.178 33.3894 578.828C32.1494 582.718 31.4894 587.008 31.6294 591.088C32.0194 602.798 41.5894 608.908 52.6294 604.868C53.7194 604.468 54.7394 603.878 55.8094 603.418C62.4394 600.528 63.7094 600.988 66.8894 607.428C75.0194 623.878 94.6994 630.128 111.689 621.308C115.299 619.438 116.709 620.308 118.849 623.268C125.479 632.438 132.399 641.388 139.399 650.278C142.569 654.298 143.809 654.168 146.059 649.628C147.869 645.968 149.069 641.998 150.839 637.398C162.129 647.078 173.159 657.068 190.729 655.598C187.929 652.968 186.159 651.078 184.159 649.478C160.929 630.828 141.489 608.488 122.149 586.038C114.989 577.728 107.719 569.508 100.919 560.928C99.3094 558.898 98.6494 555.498 98.7994 552.798C99.2094 545.498 97.1094 542.658 89.8894 540.958C80.6294 538.788 71.1194 537.058 62.3694 533.528C52.5094 529.548 47.4194 520.128 42.7894 511.138C32.7693 491.628 27.5594 470.878 29.6494 448.858C31.2294 432.128 38.0794 417.998 52.8894 408.768C61.7494 403.238 71.7794 402.888 81.3194 405.068C85.7794 406.078 89.7894 410.828 93.1094 414.658C97.0694 419.228 100.639 424.338 103.399 429.718C109.899 442.398 118.269 443.068 131.119 440.388C132.879 440.018 134.569 439.288 136.339 439.048C145.689 437.768 150.099 430.228 147.099 421.248C145.589 416.718 144.989 411.878 143.909 407.198C140.579 392.718 137.139 378.258 133.979 363.738C133.569 361.868 134.109 359.428 135.029 357.678C143.689 341.178 152.509 324.758 161.359 308.368C162.229 306.748 163.679 305.438 164.859 303.988C165.359 304.048 165.849 304.118 166.349 304.178C166.999 306.948 168.069 309.698 168.209 312.488C168.409 316.648 170.859 318.948 174.139 320.308C177.559 321.728 180.219 319.658 182.249 317.048C202.189 291.408 222.429 265.958 237.639 237.068C242.699 227.448 247.109 217.498 251.909 207.738C252.659 206.218 253.889 204.938 255.499 202.728C256.989 206.248 258.069 208.738 259.099 211.258C263.319 221.558 276.119 224.888 283.359 216.518C289.629 209.268 294.059 200.408 299.189 192.188C301.089 189.138 302.649 185.878 304.819 181.878C308.669 186.088 311.959 189.728 315.299 193.328C325.409 204.228 336.849 213.408 349.529 221.218C356.199 225.318 361.909 223.198 363.679 214.138C366.009 202.158 368.089 190.128 370.509 178.168C371.299 174.268 373.859 175.428 376.179 176.958C387.929 184.708 399.479 192.788 411.499 200.108C423.059 207.148 435.059 213.478 446.949 219.948C453.419 223.468 458.589 220.188 459.239 212.768C460.089 203.018 461.209 193.288 462.339 183.568C462.849 179.198 464.709 179.348 467.959 181.708C479.999 190.448 493.419 196.038 507.789 200.068C519.329 203.308 530.859 203.838 542.599 204.058C548.129 204.158 548.789 205.658 546.709 210.418C545.869 212.338 545.929 214.998 546.449 217.098C550.109 231.848 554.209 246.498 557.739 261.278C559.999 270.738 561.639 280.348 563.349 289.928C563.769 292.298 563.409 294.808 563.409 298.148C559.019 297.478 555.099 296.138 551.339 296.488C545.499 297.028 539.799 298.888 533.989 299.848C531.819 300.208 528.909 300.408 527.319 299.288C512.739 289.008 495.959 284.588 478.969 280.718C476.409 280.138 473.659 280.208 471.009 280.288C465.099 280.468 460.259 284.298 459.789 288.938C459.169 295.068 463.059 300.178 469.369 301.458C479.449 303.508 489.529 305.538 499.599 307.578C500.739 307.808 501.999 307.848 502.979 308.388C504.499 309.228 505.819 310.418 507.229 311.458C506.039 312.638 505.019 314.108 503.629 314.968C490.509 323.098 480.029 333.808 472.389 347.188C465.489 359.288 465.749 358.918 452.209 354.598C446.849 352.888 440.709 353.308 434.919 353.298C421.999 353.298 410.279 357.358 399.529 364.428C397.669 365.648 395.549 366.458 393.039 367.718C380.309 327.398 349.199 315.078 311.019 313.358C311.139 312.688 311.259 312.018 311.379 311.358C316.829 310.338 322.249 308.998 327.749 308.398C332.529 307.878 337.419 308.398 342.229 308.078C349.459 307.598 354.219 303.858 354.679 298.728C355.209 292.708 351.559 287.418 344.099 286.458C337.009 285.548 329.499 285.698 322.479 287.018C295.839 292.028 274.209 305.588 257.959 327.338C255.759 330.278 252.579 333.288 254.229 337.988C254.569 338.958 253.259 340.698 252.429 341.878C246.269 350.628 239.819 359.188 233.949 368.118C231.499 371.848 229.299 373.798 224.429 373.238C218.179 372.518 211.769 372.728 205.469 373.098C202.979 373.238 200.309 374.528 198.249 376.008C197.429 376.598 197.299 379.718 198.079 380.708C201.819 385.398 207.259 386.548 212.959 386.828C215.779 386.968 218.649 387.578 221.409 387.268C226.599 386.688 226.449 389.628 225.779 393.118C223.509 404.868 223.349 416.578 226.129 428.288C230.939 448.568 244.149 462.108 262.029 471.098C270.439 475.328 280.079 477.048 289.019 480.298C298.749 483.828 308.909 482.948 318.519 481.768C344.179 478.628 365.239 466.528 380.869 445.538C389.429 434.038 394.939 421.018 396.979 407.088C398.269 398.268 396.959 388.918 395.849 379.928C395.069 373.608 395.069 371.138 401.139 369.348C409.429 366.898 417.979 364.458 426.519 363.998C436.359 363.468 446.329 364.988 456.219 365.848C461.409 366.298 461.839 368.238 461.009 373.358C459.239 384.228 456.489 395.068 458.829 406.298C459.789 410.928 459.719 415.768 460.179 421.148C455.869 420.158 451.679 418.748 447.399 418.388C445.159 418.198 442.769 419.858 440.449 420.678C441.589 422.808 442.409 425.218 443.939 427.008C449.269 433.218 455.839 438.598 460.089 445.438C466.449 455.648 461.929 468.968 450.949 473.528C444.009 476.408 436.399 475.338 429.789 471.568C423.469 467.968 417.479 463.758 411.519 459.568C405.939 455.648 401.519 455.948 397.739 460.938C394.009 465.868 394.879 471.618 399.879 475.348C411.189 483.758 423.709 489.358 437.619 491.818C450.979 494.168 468.919 483.708 473.889 470.178C476.159 463.988 477.549 457.478 479.659 449.988C505.459 468.488 533.769 470.298 563.839 461.268C563.839 466.188 564.289 470.178 563.759 474.038C561.979 486.928 560.179 499.838 557.759 512.628C554.989 527.248 552.289 541.948 548.229 556.248C540.909 582.018 530.599 606.698 514.159 628.078C504.399 640.768 493.789 653.098 481.979 663.868C462.339 681.778 439.409 694.438 412.699 698.508C400.609 700.348 388.219 701.988 376.089 701.338C357.429 700.348 338.889 697.508 320.919 691.568C311.679 688.508 301.969 686.728 292.369 684.928C287.319 683.978 283.239 686.528 280.959 691.218C278.949 695.348 280.129 702.248 283.999 704.968C288.299 707.988 293.069 710.508 297.949 712.478C315.119 719.428 333.169 723.068 351.359 726.208C370.369 729.498 389.409 730.418 408.589 728.198C455.219 722.798 493.599 701.508 525.039 667.218C551.189 638.698 568.479 605.188 579.679 568.338C589.319 536.608 594.269 504.058 596.859 471.098C597.699 460.468 598.039 449.808 598.829 439.168C598.989 436.938 599.609 434.448 600.839 432.638C615.799 410.598 617.299 386.388 612.759 361.128C612.459 359.438 612.629 357.658 612.579 355.928C614.289 356.268 615.979 356.718 617.699 356.928C620.969 357.348 624.299 358.118 627.519 357.838C630.799 357.548 633.829 355.618 633.559 351.768C633.289 347.818 630.229 345.868 626.579 346.098C622.469 346.358 618.109 346.788 614.439 348.438C610.599 350.168 609.669 348.928 608.289 345.738C605.789 339.948 602.669 334.428 600.029 328.698C598.729 325.878 597.319 322.888 597.019 319.868C594.219 291.978 590.219 264.308 582.449 237.298C582.049 235.888 581.519 234.128 582.009 232.918C587.009 220.528 583.869 208.338 581.109 196.218C580.409 193.118 581.209 191.778 583.659 190.208C596.709 181.888 599.159 175.708 596.519 160.458C596.219 158.708 597.789 156.188 599.199 154.668C609.369 143.738 617.279 131.638 620.019 116.648C623.559 97.3276 611.469 85.0776 596.569 84.8976C593.249 84.8576 592.499 83.4876 593.649 80.4576C596.039 74.1576 596.139 67.6776 593.979 61.3476C590.219 50.3076 579.429 44.2576 567.279 46.1376C564.239 46.6076 561.239 47.2876 557.339 48.0376V48.0776ZM234.679 407.368C233.509 394.448 237.999 383.598 242.859 372.958C248.339 360.958 256.359 350.788 266.019 341.738C271.239 336.848 276.289 331.928 283.329 329.988C288.559 328.548 293.879 327.058 299.249 326.558C309.569 325.588 320.179 323.738 330.259 325.168C340.989 326.688 351.309 330.938 360.329 338.138C382.119 355.518 388.559 378.598 385.649 404.838C384.219 417.738 378.619 429.398 370.549 440.018C355.139 460.278 334.349 469.648 309.759 471.668C298.059 472.628 286.689 469.908 275.799 465.738C262.419 460.618 250.819 452.788 243.069 440.508C236.609 430.268 232.819 419.058 234.679 407.378V407.368ZM467.659 394.988C467.359 384.558 470.389 373.518 475.189 363.068C483.999 343.888 496.909 327.978 515.079 316.848C517.039 315.648 520.529 315.648 522.799 316.488C528.599 318.628 534.059 321.678 539.779 324.068C541.079 324.608 543.679 324.528 544.259 323.718C545.089 322.548 545.179 320.208 544.569 318.808C543.459 316.268 541.669 313.998 540.039 311.708C538.239 309.188 538.759 307.338 541.809 307.318C547.579 307.278 553.409 307.378 559.089 308.228C561.379 308.568 564.389 310.608 565.249 312.648C566.759 316.198 567.289 320.328 567.499 324.258C568.189 337.188 568.959 350.128 568.929 363.068C568.899 377.368 568.079 391.668 567.509 405.958C566.999 418.858 566.519 431.768 565.669 444.638C565.549 446.408 563.739 448.868 562.089 449.608C550.129 454.928 537.809 456.828 524.499 455.368C511.469 453.938 500.029 449.328 489.879 441.828C474.789 430.668 467.349 415.208 467.649 394.998L467.659 394.988ZM599.919 363.928C604.799 371.848 604.539 391.808 599.919 397.258V363.928Z" fill="#334155"/>
<path d="M477.381 542.818C476.231 540.868 475.431 537.718 473.841 537.258C471.821 536.668 468.511 537.548 466.891 539.028C459.201 546.068 451.761 553.318 442.041 557.658C427.941 563.968 410.641 559.628 400.421 548.628C398.271 546.318 396.021 544.088 394.011 541.668C390.451 537.388 385.871 537.458 381.221 538.758C376.721 540.008 375.061 543.468 374.121 547.998C373.021 553.308 374.411 557.408 377.831 561.188C393.371 578.368 412.761 585.708 435.451 581.558C454.411 578.088 468.901 567.818 475.771 548.818C475.941 548.348 476.061 547.858 476.111 547.368C476.241 546.038 476.311 544.708 476.411 543.388C476.731 543.208 477.051 543.018 477.371 542.838L477.381 542.818Z" fill="#334155"/>
<path d="M51.8704 449.907C53.2104 448.907 54.1304 448.297 54.9504 447.577C58.2404 444.697 61.8404 444.527 64.7304 447.627C68.6404 451.837 71.9805 456.587 75.5905 461.077C80.3605 467.007 84.7604 473.307 90.0604 478.717C94.9404 483.707 100.59 483.447 105.19 479.327C109.87 475.127 111.43 467.887 107.51 463.247C102.31 457.097 96.3405 451.567 90.3804 446.117C87.2304 443.247 83.5704 440.827 79.8505 438.717C72.6505 434.627 65.0405 433.677 57.6505 438.087C53.6404 440.477 51.5604 444.377 51.8704 449.907Z" fill="#334155"/>
<path d="M299.59 379.938C299.59 383.098 299.49 386.258 299.61 389.408C299.86 395.988 303.54 400.358 309.81 401.708C314.75 402.768 319.54 400.118 322.22 394.648C328.1 382.658 330.4 369.978 329.26 356.688C328.67 349.868 323.36 344.478 317.2 344.148C310.68 343.798 302.46 349.708 301.42 356.308C300.38 362.948 300.25 369.728 299.75 376.448C299.66 377.608 299.74 378.778 299.74 379.938C299.69 379.938 299.64 379.938 299.59 379.938Z" fill="#334155"/>
<path d="M485.351 368.838C484.961 377.428 487.361 384.508 491.791 391.018C494.471 394.958 498.341 397.108 502.791 396.598C507.691 396.028 511.461 393.348 513.431 388.158C516.891 379.018 519.531 369.698 517.541 360.028C516.671 355.808 514.101 351.418 511.081 348.288C506.631 343.678 500.591 343.818 495.811 348.068C489.491 353.698 484.131 360.078 485.361 368.838H485.351Z" fill="#334155"/>
</svg>
